<?xml version="1.0" encoding="utf-8"?><!DOCTYPE svg PUBLIC "-//W3C//DTD SVG 1.1//EN" "http://www.w3.org/Graphics/SVG/1.1/DTD/svg11.dtd"><svg width="142" height="142" viewBox="0 0 142 142" xmlns="http://www.w3.org/2000/svg" xmlns:xlink="http://www.w3.org/1999/xlink"><svg width="141.73" height="141.73" viewBox="0 0 141.73 141.73" id="SKAT" xmlns="http://www.w3.org/2000/svg"><path fill="#5399D3" d="M113.056 93h-85a2 2 0 0 1-2-2V39a2 2 0 0 1 2-2h85a2 2 0 0 1 2 2v52a2 2 0 0 1-2 2zm-83-4h81V41h-81v48z"/><path fill="#5399D3" d="M63.889 91.666h13.334v9.834H63.889zM97.556 105.082h-54a.75.75 0 0 1 0-1.5h54a.75.75 0 0 1 0 1.5zM113.5 50H30a.5.5 0 0 1 0-1h83.5a.5.5 0 0 1 0 1z"/><circle fill="#5399D3" cx="106.358" cy="44.969" r="1.455"/><circle fill="#5399D3" cx="102.188" cy="44.969" r="1.455"/><circle fill="#5399D3" cx="98.017" cy="44.969" r="1.455"/><path fill="#5399D3" d="M79.605 56.763H40.778c-.253 0-.458-.23-.458-.513s.205-.513.458-.513h38.827c.253 0 .457.23.457.513s-.204.513-.457.513zM76.948 61.451H40.747c-.236 0-.427-.23-.427-.513s.191-.513.427-.513h36.201c.235 0 .427.23.427.513s-.191.513-.427.513zM76.454 66.138H40.741c-.232 0-.421-.23-.421-.513s.188-.513.421-.513h35.713c.232 0 .421.23.421.513s-.188.513-.421.513zM77.784 70.826H40.757c-.241 0-.437-.23-.437-.513s.195-.513.437-.513h37.027c.241 0 .437.23.437.513s-.196.513-.437.513zM81.891 75.514H40.805c-.268 0-.484-.23-.484-.514s.217-.514.484-.514h41.086c.268 0 .484.23.484.514s-.217.514-.484.514z"/><path fill="#5399D3" d="M88.607 77.42c-7.02 0-12.73-5.71-12.73-12.73 0-7.02 5.711-12.731 12.73-12.731 7.021 0 12.731 5.711 12.731 12.731.001 7.019-5.71 12.73-12.731 12.73zm0-24.461c-6.468 0-11.73 5.263-11.73 11.731s5.263 11.73 11.73 11.73c6.469 0 11.731-5.262 11.731-11.73s-5.262-11.731-11.731-11.731zM104.49 86a.498.498 0 0 1-.392-.189l-6.938-8.762a.5.5 0 1 1 .783-.621l6.938 8.762a.5.5 0 0 1-.391.81z"/><path fill="#5399D3" d="M80.167 73.917a.5.5 0 0 1-.443-.732l4-7.667a.501.501 0 0 1 .624-.235l5.25 2.031 3.45-8.463a.499.499 0 1 1 .925.378l-3.636 8.917a.5.5 0 0 1-.644.277l-5.291-2.047-3.793 7.271a.496.496 0 0 1-.442.27z"/><path fill="#5399D3" d="M94.834 64.821a.355.355 0 0 1-.412-.286l-.973-5.344-4.431 3.141a.355.355 0 0 1-.411-.579l4.886-3.463a.357.357 0 0 1 .556.226l1.071 5.893a.353.353 0 0 1-.286.412z"/></svg></svg>