<svg height="30pt" viewBox="0 -67 512.00103 512" width="30pt" xmlns="http://www.w3.org/2000/svg"><path d="m256.0625 357.75c-2.628906 0-5.210938 1.070312-7.070312 2.933594-1.863282 1.859375-2.933594 4.441406-2.933594 7.070312 0 2.640625 1.070312 5.210938 2.933594 7.070313 1.859374 1.859375 4.441406 2.933593 7.070312 2.933593s5.210938-1.070312 7.070312-2.933593c1.863282-1.859375 2.933594-4.429688 2.933594-7.070313 0-2.628906-1.070312-5.210937-2.933594-7.070312-1.859374-1.863282-4.441406-2.933594-7.070312-2.933594zm0 0"/><path d="m50.011719 303.652344c-5.523438 0-10 4.480468-10 10.003906v12.089844c0 5.523437 4.476562 10.003906 10 10.003906 5.523437 0 10.003906-4.480469 10.003906-10.003906v-12.089844c0-5.527344-4.480469-10.003906-10.003906-10.003906zm0 0"/><path d="m90.023438 303.652344c-5.527344 0-10.003907 4.480468-10.003907 10.003906v12.089844c0 5.523437 4.476563 10.003906 10.003907 10.003906 5.523437 0 10-4.480469 10-10.003906v-12.089844c0-5.527344-4.476563-10.003906-10-10.003906zm0 0"/><path d="m130.03125 303.652344c-5.523438 0-10 4.480468-10 10.003906v12.089844c0 5.523437 4.476562 10.003906 10 10.003906s10.003906-4.480469 10.003906-10.003906v-12.089844c0-5.527344-4.480468-10.003906-10.003906-10.003906zm0 0"/><path d="m216.179688 303.652344c-5.523438 0-10.003907 4.480468-10.003907 10.003906v12.089844c0 5.523437 4.480469 10.003906 10.003907 10.003906 5.523437 0 10.003906-4.480469 10.003906-10.003906v-12.089844c0-5.527344-4.480469-10.003906-10.003906-10.003906zm0 0"/><path d="m256.191406 303.652344c-5.527344 0-10.003906 4.480468-10.003906 10.003906v12.089844c0 5.523437 4.476562 10.003906 10.003906 10.003906 5.523438 0 10-4.480469 10-10.003906v-12.089844c0-5.527344-4.476562-10.003906-10-10.003906zm0 0"/><path d="m216.179688 212.054688c-5.523438 0-10.003907 4.480468-10.003907 10.003906v3.761718c0 5.523438 4.480469 10 10.003907 10 5.523437 0 10.003906-4.476562 10.003906-10v-3.761718c0-5.523438-4.480469-10.003906-10.003906-10.003906zm0 0"/><path d="m256.191406 212.054688c-5.527344 0-10.003906 4.480468-10.003906 10.003906v3.761718c0 5.523438 4.476562 10 10.003906 10 5.523438 0 10-4.476562 10-10v-3.761718c0-5.523438-4.476562-10.003906-10-10.003906zm0 0"/><path d="m50.011719 218.472656c-5.523438 0-10 4.476563-10 10v8.03125c0 5.523438 4.476562 10 10 10 5.523437 0 10.003906-4.476562 10.003906-10v-8.03125c0-5.523437-4.480469-10-10.003906-10zm0 0"/><path d="m90.023438 218.472656c-5.527344 0-10.003907 4.476563-10.003907 10v8.03125c0 5.523438 4.476563 10 10.003907 10 5.523437 0 10-4.476562 10-10v-8.03125c0-5.523437-4.476563-10-10-10zm0 0"/><path d="m130.03125 218.472656c-5.523438 0-10 4.476563-10 10v8.03125c0 5.523438 4.476562 10 10 10s10.003906-4.476562 10.003906-10v-8.03125c0-5.523437-4.480468-10-10.003906-10zm0 0"/><path d="m510.074219 187.828125c-.011719-.015625-.011719-.03125-.027344-.046875l-33.804687-45.867188v-14.859374c0-5.523438-4.480469-10.003907-10.003907-10.003907-5.523437 0-10 4.480469-10 10.003907v14.859374l-1.074219 1.453126h-38.1875v-7.238282c0-5.523437-4.476562-10.003906-10.003906-10.003906-5.523437 0-10 4.480469-10 10.003906v7.238282h-37.011718v-7.238282c0-5.523437-4.476563-10.003906-10-10.003906-5.523438 0-10.003907 4.480469-10.003907 10.003906v7.238282h-43.523437v-62.988282c0-18.808594-12.929688-34.652344-30.367188-39.113281v-31.261719c0-5.523437-4.480468-10.003906-10.003906-10.003906s-10.003906 4.480469-10.003906 10.003906v31.261719c-17.4375 4.460937-30.367188 20.304687-30.367188 39.113281v62.992188h-43.648437v-7.242188c0-5.523437-4.480469-10-10.003907-10-5.523437 0-10 4.476563-10 10v7.242188h-37.011718v-7.242188c0-5.523437-4.476563-10-10-10-5.527344 0-10.003906 4.476563-10.003906 10v7.242188h-38.1875l-1.074219-1.457032v-14.859374c0-5.523438-4.476563-10-10-10-5.523438 0-10.003907 4.476562-10.003907 10v14.859374l-33.804687 45.867188c-.03125.039062-.046875.074219-.074219.109375-1.179687 1.640625-1.878906 3.648437-1.878906 5.824219v174.042968c0 5.523438 4.476562 10 10.003906 10h206.175782c5.523437 0 10.003906-4.476562 10.003906-10 0-5.523437-4.480469-10.003906-10.003906-10.003906h-35.699219v-86.082031h151.039062v86.082031h-35.699219c-5.523437 0-10 4.480469-10 10.003906 0 5.523438 4.476563 10 10 10h206.179688c5.523438 0 10-4.476562 10-10v-174.042968c0-2.203125-.71875-4.234375-1.925781-5.886719zm-158.550781 15.890625h140.472656v55.949219h-140.472656zm98.753906-20.007812 15.960937-21.648438 15.960938 21.648438zm-24.851563 0h-74.019531c-.433594-2.84375-2.082031-5.445313-4.652344-7.019532l-21.683594-13.316406h115.347657zm-189.726562-93.328126h40.726562v43.121094l-15.191406-9.328125c-3.210937-1.972656-7.257813-1.972656-10.46875 0l-15.066406 9.253907zm20.300781 54.054688 50.117188 30.773438h-100.234376zm.0625-84.421875c7.59375 0 14.21875 4.183594 17.71875 10.359375h-35.4375c3.5-6.175781 10.125-10.359375 17.71875-10.359375zm-69.132812 103.359375-21.683594 13.316406c-2.570313 1.578125-4.21875 4.175782-4.652344 7.019532h-74.019531l-14.992188-20.335938zm-166.925782 40.34375h140.472656v55.949219h-140.472656zm25.757813-41.660156 15.960937 21.652344h-31.921875zm-25.757813 195.695312v-78.082031h140.472656v78.082031zm235.996094-106.089844h-75.519531v-56.449218h151.039062v56.449218zm95.523438 106.089844v-78.082031h140.472656v78.082031zm0 0"/><path d="m461.988281 303.652344c-5.523437 0-10.003906 4.480468-10.003906 10.003906v12.089844c0 5.523437 4.480469 10.003906 10.003906 10.003906 5.523438 0 10-4.480469 10-10.003906v-12.089844c0-5.527344-4.476562-10.003906-10-10.003906zm0 0"/><path d="m421.976562 303.652344c-5.523437 0-10 4.480468-10 10.003906v12.089844c0 5.523437 4.476563 10.003906 10 10.003906 5.527344 0 10.003907-4.480469 10.003907-10.003906v-12.089844c0-5.527344-4.476563-10.003906-10.003907-10.003906zm0 0"/><path d="m381.96875 303.652344c-5.523438 0-10.003906 4.480468-10.003906 10.003906v12.089844c0 5.523437 4.480468 10.003906 10.003906 10.003906s10-4.480469 10-10.003906v-12.089844c0-5.527344-4.476562-10.003906-10-10.003906zm0 0"/><path d="m295.820312 335.75c5.523438 0 10.003907-4.480469 10.003907-10.003906v-12.089844c0-5.523438-4.480469-10.003906-10.003907-10.003906-5.523437 0-10.003906 4.480468-10.003906 10.003906v12.089844c0 5.523437 4.480469 10.003906 10.003906 10.003906zm0 0"/><path d="m295.820312 212.054688c-5.523437 0-10.003906 4.480468-10.003906 10.003906v3.761718c0 5.523438 4.480469 10 10.003906 10 5.523438 0 10.003907-4.476562 10.003907-10v-3.761718c0-5.523438-4.480469-10.003906-10.003907-10.003906zm0 0"/><path d="m461.988281 218.472656c-5.523437 0-10.003906 4.476563-10.003906 10v8.03125c0 5.523438 4.480469 10 10.003906 10 5.523438 0 10-4.476562 10-10v-8.03125c0-5.523437-4.476562-10-10-10zm0 0"/><path d="m421.976562 218.472656c-5.523437 0-10 4.476563-10 10v8.03125c0 5.523438 4.476563 10 10 10 5.527344 0 10.003907-4.476562 10.003907-10v-8.03125c0-5.523437-4.476563-10-10.003907-10zm0 0"/><path d="m381.96875 218.472656c-5.523438 0-10.003906 4.476563-10.003906 10v8.03125c0 5.523438 4.480468 10 10.003906 10s10-4.476562 10-10v-8.03125c0-5.523437-4.476562-10-10-10zm0 0"/></svg>