<svg height="30pt" viewBox="0 0 511.99955 511" width="30pt" xmlns="http://www.w3.org/2000/svg"><path d="m329.554688 257.3125c21.832031 14.109375 48.265624 9.574219 70.824218-.222656 17.84375-7.75 31.054688-17.566406 39.269532-29.175782 6.972656-9.855468 8.5-18.316406 9.234374-22.386718 2.988282-16.585938-.441406-36.839844-10.199218-60.195313-3.304688-7.90625-13.160156-11.148437-20.535156-6.828125-5.503907 3.222656-10.375 6.476563-15.085938 9.617188-12.507812 8.347656-22.386719 14.941406-35.304688 14.941406-5.355468 0-10.675781-.84375-16.046874-.84375-29.925782 0-49.898438 12.035156-59.140626 19.214844-4.96875 3.855468-6.839843 10.652344-4.554687 16.519531 11.234375 28.832031 25.207031 48.800781 41.539063 59.359375zm22.160156-80.089844c5.363281 0 10.683594.84375 16.042968.84375 17.46875 0 30.179688-8.480468 43.636719-17.460937 4.351563-2.90625 8.84375-5.902344 13.730469-8.792969 8.285156 20.066406 11.394531 37.707031 8.988281 51.050781-1.121093 6.230469-4.546875 25.1875-39.710937 40.460938-17.863282 7.757812-39.273438 12.636719-56.703125 1.382812-13.351563-8.628906-25.625-26.515625-35.515625-51.738281 6.546875-4.984375 23.6875-15.746094 49.53125-15.746094zm0 0"/><path d="m296.753906 134.429688-3.871094-8.910157c-1.652343-3.800781-6.070312-5.542969-9.871093-3.894531-3.800781 1.652344-5.546875 6.070312-3.894531 9.871094 0 0 3.863281 8.894531 3.871093 8.914062 1.632813 3.757813 6.121094 5.519532 9.871094 3.890625 3.800781-1.648437 5.542969-6.070312 3.894531-9.871093zm0 0"/><path d="m388.355469 102.140625c5.316406.039063 8.988281-5.621094 6.878906-10.476563l-3.871094-8.914062c-1.652343-3.800781-6.070312-5.542969-9.871093-3.894531-3.800782 1.652343-5.546876 6.070312-3.894532 9.875 0 0 3.863282 8.894531 3.871094 8.910156 1.207031 2.785156 3.996094 4.476563 6.886719 4.5zm0 0"/><path d="m333.953125 129.789062c3.496094 0 6.996094-.71875 10.210937-2.113281 6.722657-2.921875 11.820313-8.484375 13.980469-15.257812 1.257813-3.949219-.921875-8.171875-4.871093-9.429688-3.949219-1.257812-8.171876.921875-9.429688 4.871094-.84375 2.648437-2.90625 4.855469-5.65625 6.050781-2.75 1.191406-5.769531 1.195313-8.285156 0-3.746094-1.773437-8.21875-.175781-9.996094 3.566406-4.144531 8.738282 7.761719 12.3125 14.046875 12.3125zm0 0"/><path d="m93.847656 228.625c-7.402344-4.335938-17.226562-1.09375-20.535156 6.828125-9.757812 23.355469-13.191406 43.609375-10.203125 60.199219 1.480469 8.183594 5.976563 33.089844 48.503906 51.558594 22.628907 9.828124 49.039063 14.292968 70.832031.222656 16.328126-10.554688 30.300782-30.527344 41.53125-59.359375 2.285157-5.871094.414063-12.664063-4.554687-16.519531-9.242187-7.175782-29.214844-19.21875-59.140625-19.21875-5.367188 0-10.691406.847656-16.042969.847656-12.921875 0-22.800781-6.59375-35.308593-14.941406-4.710938-3.144532-9.582032-6.394532-15.082032-9.617188zm56.238282 39.308594c21.082031-1.542969 42.542968 2.078125 59.722656 15.160156-9.886719 25.21875-22.160156 43.105469-35.507813 51.730469-17.445312 11.273437-38.917969 6.347656-56.707031-1.378907-35.167969-15.269531-38.589844-34.230468-39.714844-40.460937-2.402344-13.34375.703125-30.984375 8.992188-51.050781 4.882812 2.890625 9.378906 5.890625 13.726562 8.792968 13.460938 8.980469 26.171875 17.460938 43.636719 17.460938 1.957031 0 3.902344-.109375 5.851563-.253906zm0 0"/><path d="m222.121094 235.03125c2.890625-.019531 5.675781-1.714844 6.886718-4.5l3.867188-8.914062c1.652344-3.800782-.09375-8.21875-3.894531-9.871094-3.800781-1.648438-8.21875.09375-9.871094 3.894531 0 0-3.859375 8.886719-3.867187 8.910156-2.09375 4.820313 1.609374 10.515625 6.878906 10.480469zm0 0"/><path d="m123.640625 192.261719c2.890625-.019531 5.679687-1.710938 6.886719-4.5l3.867187-8.910157c1.652344-3.800781-.089843-8.222656-3.890625-9.871093-3.800781-1.648438-8.222656.089843-9.875 3.890625 0 0-3.855468 8.886718-3.867187 8.914062-2.097657 4.828125 1.605469 10.515625 6.878906 10.476563zm0 0"/><path d="m167.828125 217.796875c6.550781 2.84375 14.21875 2.867187 20.691406-.203125 3.746094-1.773438 5.34375-6.25 3.566407-9.996094-1.777344-3.742187-6.25-5.339844-9.996094-3.5625-2.511719 1.191406-5.53125 1.191406-8.28125-.003906-2.753906-1.195312-4.816406-3.398438-5.660156-6.050781-1.257813-3.949219-5.480469-6.128907-9.429688-4.871094-3.945312 1.261719-6.128906 5.480469-4.867188 9.429687 2.160157 6.777344 7.253907 12.335938 13.976563 15.257813zm0 0"/><path d="m8.554688 474.914062s80.101562 34.785157 80.121093 34.792969c9.859375 4.28125 21.292969-3.992187 20.027344-14.75-1.738281-14.777343-10.667969-26.097656-17.855469-32.996093-1.691406-1.621094-2.183594-4.191407-1.226562-6.398438l32.726562-75.355469c9.941406 2.660157 19.507813 4 28.664063 4 15.3125 0 29.5-3.71875 42.453125-11.152343 24.191406-13.878907 43.714844-40.625 58.027344-79.503907 7.46875-20.285156 13.433593-43.503906 17.824218-69.273437 11.359375 23.902344 26.464844 44.585937 46.5625 57.074218 22.300782 13.859376 48.820313 15.410157 73.765625 8.734376l32.726563 75.355468c.957031 2.207032.464844 4.777344-1.226563 6.398438-7.183593 6.894531-16.113281 18.21875-17.851562 32.996094-1.269531 10.789062 10.128906 19.046874 20.023437 14.75 0 0 80.082032-34.777344 80.125-34.796876 9.925782-4.308593 11.648438-18.261718 2.890625-24.703124-10.769531-7.921876-23.515625-9.585938-32.308593-9.585938-3.640626 0-7.730469.710938-9.5-3.363281l-32.726563-75.355469c22.640625-14.132812 37.011719-32.503906 42.824219-54.824219 13.640625-52.394531-23.425782-115.726562-56.921875-159.632812-2.511719-3.296875-7.222657-3.929688-10.515625-1.417969-3.296875 2.515625-3.929688 7.222656-1.414063 10.519531 57.019531 74.742188 61.015625 121.058594 54.328125 146.75-5.238281 20.105469-19.246094 36.574219-41.714844 49.089844-8.238281 4.589844-16.96875 8.394531-25.929687 11.324219-26.382813 8.617187-49.429687 6.960937-68.652344-4.984375-21.054687-13.085938-38.085937-38.171875-50.800781-74.722657-.03125-.113281-.058594-.226562-.09375-.339843-6.097656-17.515625-10.542969-35.601563-13.960938-53.820313-6.007812-31.996094-7.988281-60.523437-8.609374-73.207031-.125-2.546875 1.363281-4.941406 3.707031-5.960937l102.597656-44.554688c2.339844-1.015625 5.109375-.472656 6.886719 1.359375 5.585937 5.757813 14.363281 15.109375 24.445312 26.984375 2.683594 3.160156 7.417969 3.546875 10.578125.863281 3.15625-2.679687 3.542969-7.417969.863281-10.574219-10.351562-12.191406-19.371093-21.804687-25.117187-27.722656-6.097656-6.285156-15.597656-8.164062-23.632813-4.671875l-102.597656 44.550781c-8.035156 3.492188-13.148437 11.714844-12.71875 20.460938.617188 12.585938 2.203125 34.527344 6.210938 59.949219l-80.226563-34.839844c-8.035156-3.488281-17.535156-1.613281-23.632812 4.671875-15.820313 16.300781-55.339844 59.441406-80.558594 107.867188-1.914063 3.675781-.484375 8.207031 3.191406 10.121093 3.675781 1.914063 8.207031.488281 10.121094-3.1875 24.300781-46.667969 62.652344-88.523437 78.011719-104.347656 1.78125-1.832031 4.546875-2.378906 6.890625-1.359375l89.289062 38.773438c3.648438 18.871093 8.1875 36.3125 13.515625 51.925781-6.121094 49.761719-23.574218 135.339843-72.160156 163.21875-18.828125 10.800781-41.253906 11.980469-66.789062 3.5625-8.859376-2.921875-17.496094-6.6875-25.640626-11.238281-21.347656-11.898438-35.058593-27.363282-40.828124-46.101563-5.84375-18.976563-3.859376-41.890625 5.890624-68.105469 1.445313-3.882812-.53125-8.203125-4.417968-9.648437-3.886719-1.441407-8.203125.535156-9.648438 4.417969-21.199218 56.996093-8.84375 101.160156 35.632813 128.96875 0 0-32.644531 75.175781-32.726563 75.359374-1.761718 4.058594-5.90625 3.363282-9.503906 3.363282-8.792969 0-21.539062 1.664062-32.308594 9.589844-8.757812 6.441406-7.011718 20.402343 2.894532 24.703124zm410.050781-195.832031 32.152343 74.035157c3.449219 7.941406 11.460938 12.957031 20.09375 12.476562 8.78125-.476562 18.15625.890625 25.585938 5.878906l-78.074219 33.90625c1.574219-9.800781 7.972657-17.71875 13.171875-22.710937 6.199219-5.945313 8.046875-15.269531 4.601563-23.203125l-32.152344-74.035156c4.96875-1.882813 9.851563-4.003907 14.621094-6.347657zm-380.636719 176.546875c1.046875 0 2.113281.027344 3.171875.085938 8.667969.476562 16.648437-4.535156 20.097656-12.476563l32.148438-74.035156c4.769531 2.347656 9.652343 4.464844 14.621093 6.351563l-32.152343 74.03125c-3.441407 7.933593-1.59375 17.257812 4.601562 23.203124 5.199219 4.992188 11.597657 12.910157 13.171875 22.710938l-78.074218-33.90625c7.308593-4.90625 16.15625-5.964844 22.414062-5.964844zm0 0"/></svg>