<svg height="477.60001pt" viewBox="0 0 477.60001 477.60001" width="477.60001pt" xmlns="http://www.w3.org/2000/svg"><path d="m477.601562 238.800781c0 131.886719-106.914062 238.800781-238.800781 238.800781s-238.800781-106.914062-238.800781-238.800781 106.914062-238.800781 238.800781-238.800781 238.800781 106.914062 238.800781 238.800781zm0 0" fill="#382b73"/><path d="m445.398438 238.800781c0 114.101563-92.496094 206.597657-206.597657 206.597657-114.101562 0-206.597656-92.496094-206.597656-206.597657 0-114.101562 92.496094-206.597656 206.597656-206.597656 114.101563 0 206.597657 92.496094 206.597657 206.597656zm0 0" fill="#473080"/><path d="m381.296875 355.78125c0-.359375-.019531-.714844-.058594-1.0625-.003906-.046875-.015625-.097656-.019531-.148438-.039062-.308593-.085938-.613281-.148438-.914062-.003906-.019531-.011718-.039062-.015624-.058594-1.007813-4.574218-5.078126-7.996094-9.953126-7.996094h-20.40625c2.871094 0 5.199219-2.328124 5.199219-5.199218v-5.113282h7.304688c6.054687 0 10.980469-4.914062 10.980469-10.957031v-13.59375c0-6.039062-4.925782-10.957031-10.980469-10.957031h-7.304688v-5.695312c0-.957032-.777343-1.734376-1.734375-1.734376h-24.050781v-87.558593c0-3.421875-2.777344-6.195313-6.199219-6.195313h-133.457031c-.421875-3.378906-2.472656-6.484375-5.746094-8.109375l-4.027343 8.113281 13.8125-27.828124c.992187-2.003907-1.296876-4.761719-4.230469-5.085938l-33.6875-3.742188c-5.128907-.570312-9.703125.535157-12.863281 2.953126l-9.496094-4.710938c-5.78125-2.871094-12.503906-1.714844-17 2.382812-.003906 0-.003906 0-.003906.003907-.1875.171875-.371094.347656-.550782.527343-.007812.007813-.015625.015626-.023437.023438-.171875.175781-.339844.351562-.503907.535156-.015624.015625-.027343.035156-.042968.050782-.15625.171874-.304688.347656-.449219.527343-.023437.03125-.046875.058594-.070313.085938-.136718.167969-.265624.34375-.394531.523437-.03125.039063-.0625.078125-.089843.121094-.121094.167969-.238282.339844-.351563.515625-.03125.050781-.070313.101563-.101563.152344-.109374.175781-.21875.355469-.324218.539062-.03125.050781-.0625.101563-.089844.148438-.132812.234375-.261719.472656-.378906.71875-2.03125 4.085937-2.046875 8.644531-.433594 12.554687.898438 2.179688 2.304688 4.160156 4.152344 5.742188l-37.453125 66.09375c-.167969-.003906-.339844-.011719-.511719-.011719-7.789062 0-14.101562 6.308594-14.101562 14.097656 0 7.785157 6.3125 14.097657 14.101562 14.097657 1.105469 0 2.179688-.132813 3.210938-.375l46.355468 54.066406h-4.121094c-4.273437 0-7.742187 3.46875-7.742187 7.746094v4.542968h-10.796875c-4.152344 0-7.722656 2.488282-9.3125 6.050782v.003906c-.277344.617187-.492188 1.265625-.640625 1.941406-.003906.019531-.011719.039062-.015625.058594-.066406.304687-.113281.613281-.152344.921875-.003906.050781-.015625.097656-.019531.144531-.039063.351562-.058594.714844-.058594 1.078125 0 5.632813 4.566407 10.199219 10.199219 10.199219h264.601562c.351563 0 .699219-.015625 1.039063-.050782.34375-.035156.679687-.085937 1.011719-.152343.664062-.136719 1.304687-.335938 1.914062-.59375.304688-.128907.605469-.273438.894532-.429688 3.179687-1.730469 5.335937-5.097656 5.335937-8.96875.003906-.007812 0-.011719 0-.019531zm-12.601563-45.039062v13.59375c0 3.015624-2.464843 5.472656-5.496093 5.472656h-7.304688v-24.535156h7.304688c3.03125-.003907 5.496093 2.449218 5.496093 5.46875zm-184.097656 30.558593v-.246093c0-4.277344-3.46875-7.742188-7.746094-7.742188h-3.65625v-2.261719c0-1.65625-1.34375-3-3-3h-6c-1.65625 0-3 1.34375-3 3v2.261719h-14.914062l-53.605469-62.523438c.652344-1.628906 1.019531-3.40625 1.019531-5.269531 0-2.832031-.839843-5.46875-2.277343-7.679687l37.574219-66.308594 1.207031.597656c-.007813 1.859375.402343 3.792969 1.203125 5.707032.910156 2.179687 2.328125 4.335937 4.222656 6.328124l11.371094 11.964844.496094.523438v96.40625c0 3.425781 2.777343 6.199218 6.199218 6.199218h65.136719v14.054688h-1.714844c-3.425781 0-6.199219 2.777344-6.199219 6.199219v5.921875h55.777344v-5.921875c0-3.421875-2.777344-6.199219-6.199218-6.199219h-1.714844v-14.054688h58.664062v21.148438c0 2.871094 2.328125 5.199219 5.199219 5.199219h-138.042969zm0 0" fill="#382b73"/><path d="m199.800781 141.199219c0 21.535156 17.460938 38.996093 39 38.996093 21.539063 0 38.996094-17.460937 38.996094-38.996093v-6c0-8.894531-2.984375-17.089844-7.996094-23.652344-7.121093-9.324219-18.355469-15.347656-31-15.347656-10.769531 0-20.519531 4.363281-27.578125 11.421875s-11.421875 16.808594-11.421875 27.578125zm0 0" fill="#382b73"/><path d="m323.910156 307.253906h-170.21875c-3.425781 0-6.199218-2.773437-6.199218-6.199218v-104.125c0-3.421876 2.773437-6.199219 6.199218-6.199219h170.21875c3.425782 0 6.199219 2.777343 6.199219 6.199219v104.125c0 3.425781-2.773437 6.199218-6.199219 6.199218zm0 0" fill="#0099dc"/><path d="m323.910156 303.121094h-170.21875c-3.425781 0-6.199218-2.773438-6.199218-6.195313v-104.128906c0-3.421875 2.773437-6.195313 6.199218-6.195313h170.21875c3.425782 0 6.199219 2.773438 6.199219 6.195313v104.128906c0 3.421875-2.773437 6.195313-6.199219 6.195313zm0 0" fill="#1cade3"/><path d="m218.828125 307.253906h39.945313v14.054688h-39.945313zm0 0" fill="#0099dc"/><path d="m218.828125 307.253906h39.945313v3.726563h-39.945313zm0 0" fill="#106ea0"/><path d="m210.910156 329.300781h55.777344v4.132813h-55.777344zm0 0" fill="#106ea0"/><path d="m266.691406 329.300781h-55.78125v-1.789062c0-3.425781 2.777344-6.199219 6.199219-6.199219h43.382813c3.421874 0 6.199218 2.777344 6.199218 6.199219zm0 0" fill="#1cade3"/><path d="m321.75 281.917969h-165.898438c-1.660156 0-3-1.34375-3-3v-84.359375c0-1.65625 1.339844-3 3-3h165.898438c1.65625 0 3 1.34375 3 3v84.359375c0 1.65625-1.34375 3-3 3zm0 0" fill="#fddd3a"/><path d="m324.75 194.589844h-171.898438c0-1.675782 1.355469-3.03125 3.027344-3.03125h165.84375c1.671875 0 3.027344 1.355468 3.027344 3.03125zm0 0" fill="#f6ca14"/><path d="m245.410156 293.28125h-13.222656c-.910156 0-1.652344-.738281-1.652344-1.652344 0-.910156.742188-1.652344 1.652344-1.652344h13.222656c.914063 0 1.652344.738282 1.652344 1.652344 0 .914063-.738281 1.652344-1.652344 1.652344zm0 0" fill="#fddd3a"/><path d="m350.699219 283.820312h-28.0625c-2.871094 0-5.199219 2.328126-5.199219 5.199219v39.382813c0 2.871094 2.328125 5.199218 5.199219 5.199218h28.0625c2.867187 0 5.195312-2.328124 5.195312-5.199218v-39.382813c0-2.871093-2.328125-5.199219-5.195312-5.199219zm0 0" fill="#e43c90"/><path d="m350.699219 280.355469h-28.0625c-2.871094 0-5.199219 2.328125-5.199219 5.199219v39.382812c0 2.871094 2.328125 5.199219 5.199219 5.199219h28.0625c2.867187 0 5.195312-2.328125 5.195312-5.199219v-39.382812c0-2.871094-2.328125-5.199219-5.195312-5.199219zm0 0" fill="#e43c90"/><path d="m342.5625 280.355469h-11.789062c-2.871094 0-5.199219 2.328125-5.199219 5.199219v39.382812c0 2.871094 2.328125 5.199219 5.199219 5.199219h11.789062c2.871094 0 5.199219-2.328125 5.199219-5.199219v-39.382812c-.003907-2.871094-2.328125-5.199219-5.199219-5.199219zm0 0" fill="#ee5a9c"/><path d="m363.199219 323.289062h-7.304688v-5.484374h7.304688c3.03125 0 5.496093-2.453126 5.496093-5.46875v-13.597657c0-3.015625-2.464843-5.46875-5.496093-5.46875h-7.304688v-5.484375h7.304688c6.054687 0 10.980469 4.914063 10.980469 10.953125v13.597657c0 6.039062-4.925782 10.953124-10.980469 10.953124zm0 0" fill="#ee5a9c"/><path d="m363.199219 290.527344h-7.304688v2.742187h7.304688c3.03125 0 5.496093 2.453125 5.496093 5.472657v13.59375c0 3.015624-2.464843 5.472656-5.496093 5.472656h-7.304688v2.742187h7.304688c4.550781 0 8.238281-3.679687 8.238281-8.214843v-13.59375c0-4.535157-3.6875-8.214844-8.238281-8.214844zm0 0" fill="#e43c90"/><path d="m355.894531 288.464844h-38.453125v-6.375c0-.960938.773438-1.734375 1.730469-1.734375h34.992187c.957032 0 1.730469.777343 1.730469 1.734375zm0 0" fill="#ef6ea8"/><path d="m371.101562 354h-264.601562c-5.632812 0-10.199219-4.566406-10.199219-10.199219 0-5.632812 4.566407-10.199219 10.199219-10.199219h264.601562c5.628907 0 10.199219 4.5625 10.199219 10.199219 0 5.632813-4.566406 10.199219-10.199219 10.199219zm0 0" fill="#0099dc"/><path d="m371.101562 345.703125h-264.601562c-4.152344 0-7.722656-2.488281-9.3125-6.050781-.566406 1.269531-.886719 2.667968-.886719 4.148437 0 5.632813 4.566407 10.199219 10.203125 10.199219h264.597656c5.628907 0 10.199219-4.566406 10.199219-10.199219 0-1.480469-.324219-2.878906-.890625-4.148437-1.589844 3.566406-5.152344 6.050781-9.308594 6.050781zm0 0" fill="#106ea0"/><path d="m184.175781 191.558594h2.234375c-.523437-.402344-1.089844-.761719-1.703125-1.070313zm0 0" fill="#0099dc"/><path d="m152.851562 194.558594c0-1.65625 1.339844-3 3-3h28.324219l2.460938-4.957032h-32.945313c-3.425781 0-6.199218 2.773438-6.199218 6.195313v23.851563l5.359374 5.636718zm0 0" fill="#0099dc"/><path d="m186.410156 191.558594h-30.558594c-1.660156 0-3 1.34375-3 3v27.726562l6.121094 6.441406c2.03125 2.140626 5.613282 2.300782 6.609375.292969l9.789063-19.71875c4.21875 2.09375 9.171875 1.085938 12.261718-2.152343.335938-.351563.644532-.746094.933594-1.152344.324219-.449219.621094-.921875.875-1.433594.144532-.289062.269532-.585938.382813-.878906.050781-.132813.09375-.261719.136719-.390625.054687-.160157.105468-.316407.152343-.476563.050781-.175781.097657-.347656.136719-.519531.023438-.101563.042969-.207031.066406-.3125.796875-3.90625-.703125-7.980469-3.90625-10.425781zm0 0" fill="#e7ad27"/><path d="m138.0625 331.683594-66.367188-77.398438 46.742188-82.488281 11.304688 6.40625-42.246094 74.550781 60.429687 70.472656zm0 0" fill="#fddd3a"/><path d="m79.597656 254.285156 63.015625 73.496094 5.3125-4.554688-60.429687-70.472656 42.246094-74.550781-5.324219-3.015625zm0 0" fill="#e7ad27"/><path d="m93.695312 253.519531c0 7.785157-6.3125 14.097657-14.097656 14.097657s-14.097656-6.3125-14.097656-14.097657c0-7.785156 6.3125-14.097656 14.097656-14.097656s14.097656 6.3125 14.097656 14.097656zm0 0" fill="#ee5a9c"/><path d="m85.617188 253.519531c0 3.324219-2.695313 6.019531-6.019532 6.019531-3.324218 0-6.019531-2.695312-6.019531-6.019531s2.695313-6.019531 6.019531-6.019531c3.324219 0 6.019532 2.695312 6.019532 6.019531zm0 0" fill="#a62973"/><path d="m176.851562 321.3125h-51.8125c-4.273437 0-7.742187 3.46875-7.742187 7.742188v4.546874h67.300781v-4.546874c0-4.277344-3.46875-7.742188-7.746094-7.742188zm0 0" fill="#ee5a9c"/><path d="m170.195312 316.050781h-6c-1.65625 0-3 1.34375-3 3v2.261719h12v-2.261719c0-1.65625-1.34375-3-3-3zm0 0" fill="#fddd3a"/><path d="m117.296875 329.300781h67.300781v4.300781h-67.300781zm0 0" fill="#a62973"/><path d="m133.421875 181.726562-12.722656-6.3125c-7.519531-3.730468-10.589844-12.855468-6.855469-20.371093 3.730469-7.519531 12.851562-10.589844 20.371094-6.859375l12.71875 6.3125zm0 0" fill="#ee5a9c"/><path d="m117.804688 150.058594c-1.609376 1.324218-2.976563 2.996094-3.960938 4.984375-3.734375 7.519531-.664062 16.640625 6.855469 20.371093l12.722656 6.316407 5.535156-11.152344-12.722656-6.3125c-5.53125-2.746094-8.648437-8.410156-8.429687-14.207031zm0 0" fill="#e43c90"/><path d="m184.707031 178.492188c5.191407 2.578124 7.316407 8.878906 4.738281 14.074218-2.578124 5.195313-8.878906 7.316406-14.074218 4.738282zm0 0" fill="#fff"/><path d="m178.308594 191.378906-2.941406 5.921875c5.195312 2.578125 11.496093.460938 14.074218-4.738281.515625-1.035156.835938-2.113281.988282-3.199219-3.101563 3.125-7.960938 4.078125-12.121094 2.015625zm0 0" fill="#d0d2d3"/><path d="m158.972656 216.726562-23.351562-24.566406c-5.132813-5.398437-6.785156-11.996094-4.273438-17.054687l9.058594-18.25c2.511719-5.0625 8.761719-7.734375 16.167969-6.910157l33.6875 3.742188c2.933593.324219 5.222656 3.082031 4.230469 5.085938l-28.910157 58.25c-.992187 2.003906-4.574219 1.84375-6.609375-.296876zm0 0" fill="#fddd3a"/><path d="m166.441406 201.679688-23.351562-24.566407c-5.132813-5.402343-6.785156-11.996093-4.273438-17.058593l-7.46875 15.050781c-2.511718 5.058593-.859375 11.65625 4.273438 17.054687l23.351562 24.566406c2.035156 2.140626 5.617188 2.300782 6.613282.292969l7.464843-15.046875c-.996093 2.003906-4.578125 1.84375-6.609375-.292968zm0 0" fill="#f6ca14"/><path d="m161.195312 319.550781h12v1.761719h-12zm0 0" fill="#f6ca14"/><path d="m199.800781 129.199219c0 21.535156 17.460938 38.996093 39 38.996093 21.539063 0 38.996094-17.460937 38.996094-38.996093v-6c0-21.539063-17.457031-39-38.996094-39-21.539062 0-39 17.460937-39 39zm0 0" fill="#a62973"/><path d="m277.796875 123.199219c0 21.535156-17.457031 38.996093-38.996094 38.996093-21.539062 0-39-17.460937-39-38.996093 0-21.539063 17.460938-39 39-39 21.539063 0 38.996094 17.460937 38.996094 39zm0 0" fill="#ee5a9c"/><path d="m269.691406 123.199219c0 17.058593-13.832031 30.890625-30.890625 30.890625-17.0625 0-30.890625-13.832032-30.890625-30.890625 0-17.0625 13.828125-30.890625 30.890625-30.890625 17.058594 0 30.890625 13.828125 30.890625 30.890625zm0 0" fill="#fddd3a"/><path d="m238.800781 94.710938c16.65625 0 30.226563 13.183593 30.855469 29.6875.019531-.394532.03125-.796876.03125-1.199219 0-17.058594-13.828125-30.890625-30.890625-30.890625-17.058594 0-30.890625 13.832031-30.890625 30.890625 0 .402343.015625.804687.03125 1.199219.632812-16.503907 14.203125-29.6875 30.863281-29.6875zm0 0" fill="#f6ca14"/><path d="m238.800781 126.199219c-1.660156 0-3-1.34375-3-3v-21.347657c0-1.65625 1.339844-3 3-3 1.65625 0 3 1.34375 3 3v21.347657c0 1.65625-1.34375 3-3 3zm0 0" fill="#e43c90"/><path d="m238.800781 121.234375c-2.023437 0-3.722656 1.367187-4.234375 3.222656l-11.390625 5.933594c-1.472656.765625-2.042969 2.574219-1.277343 4.046875.535156 1.027344 1.578124 1.613281 2.664062 1.613281.464844 0 .941406-.109375 1.382812-.339843l11.390626-5.929688c.457031.160156.949218.253906 1.464843.253906 2.429688 0 4.398438-1.972656 4.398438-4.398437 0-2.433594-1.96875-4.402344-4.398438-4.402344zm0 0" fill="#e7ad27"/><path d="m224.5625 133.613281c-1.085938 0-2.128906-.585937-2.664062-1.617187-.765626-1.46875-.195313-3.28125 1.277343-4.042969l14.238281-7.417969c1.472657-.765625 3.285157-.191406 4.046876 1.277344.765624 1.46875.195312 3.28125-1.273438 4.046875l-14.242188 7.414063c-.441406.234374-.917968.339843-1.382812.339843zm0 0" fill="#e43c90"/><path d="m243.199219 123.199219c0 2.425781-1.96875 4.398437-4.398438 4.398437-2.429687 0-4.398437-1.972656-4.398437-4.398437 0-2.429688 1.96875-4.398438 4.398437-4.398438 2.429688 0 4.398438 1.96875 4.398438 4.398438zm0 0" fill="#ee5a9c"/></svg>