<?xml version="1.0" encoding="iso-8859-1"?>
<!-- Generator: Adobe Illustrator 19.0.0, SVG Export Plug-In . SVG Version: 6.00 Build 0)  -->
<svg version="1.1" id="Capa_1" xmlns="http://www.w3.org/2000/svg" xmlns:xlink="http://www.w3.org/1999/xlink" x="0px" y="0px"
	 viewBox="0 0 480 480" style="enable-background:new 0 0 480 480;" xml:space="preserve">
<g>
	<path style="fill:#78B9EB;" d="M446.632,233.368c-12.494-12.499-32.756-12.503-45.255-0.009c-0.003,0.003-0.006,0.006-0.009,0.009
		c-6.007,5.999-9.378,14.143-9.368,22.632c0.603,11.358,4.1,22.374,10.16,32h43.68c6.06-9.626,9.557-20.642,10.16-32
		C456.01,247.511,452.639,239.367,446.632,233.368L446.632,233.368z"/>
	<path style="fill:#78B9EB;" d="M216,320h-48v-8H32v16c0,8.837,7.163,16,16,16h288c8.837,0,16-7.163,16-16v-16H216V320z"/>
	<path style="fill:#78B9EB;" d="M168,312h48v8h-48V312z"/>
	<path style="fill:#78B9EB;" d="M128,208v-48c-26.51,0-48,21.49-48,48s21.49,48,48,48s48-21.49,48-48H128z"/>
	<path style="fill:#78B9EB;" d="M159.904,172.312c-9.223-7.734-21.026-11.703-33.048-11.112l2.344,47.944l47.944-2.344
		C176.491,193.394,170.235,180.88,159.904,172.312L159.904,172.312z"/>
</g>
<g>
	<path style="fill:#1E81CE;" d="M456.064,352l7.872-63.008c0.286-2.277-0.419-4.567-1.936-6.288
		c-0.976-1.038-2.214-1.793-3.584-2.184c2.212-5.31,3.822-10.851,4.8-16.52H472v-16h-8.8c-1.032-5.008-3.02-9.769-5.856-14.024
		l6.264-6.256l-11.312-11.312l-6.264,6.256c-4.256-2.841-9.02-4.832-14.032-5.864V208h-16v8.8c-5.008,1.03-9.77,3.019-14.024,5.856
		l-6.264-6.256L384.4,227.72l6.264,6.256c-2.839,4.254-4.83,9.016-5.864,14.024H376v16h8.744c0.978,5.669,2.588,11.21,4.8,16.52
		c-1.37,0.391-2.608,1.146-3.584,2.184c-1.517,1.721-2.222,4.011-1.936,6.288L391.936,352H336c13.255,0,24-10.745,24-24v-16
		c0-4.418-3.582-8-8-8h-8V136c0-13.255-10.745-24-24-24H64c-13.255,0-24,10.745-24,24v168h-8c-4.418,0-8,3.582-8,8v16
		c0,13.255,10.745,24,24,24H0v16h480v-16H456.064z M446.936,296l-6,48h-33.872l-6-48H446.936z M424,232c13.255,0,24,10.745,24,24
		c-0.463,8.406-2.788,16.603-6.808,24h-34.4c-4.014-7.398-6.334-15.596-6.792-24C400,242.745,410.745,232,424,232z M56,136
		c0-4.418,3.582-8,8-8h256c4.418,0,8,3.582,8,8v168H56V136z M40,328v-8h120c0,4.418,3.582,8,8,8h48c4.418,0,8-3.582,8-8h120v8
		c0,4.418-3.582,8-8,8H48C43.582,336,40,332.418,40,328z"/>
	<path style="fill:#1E81CE;" d="M416,248h16v16h-16V248z"/>
	<path style="fill:#1E81CE;" d="M208,144h32v16h-32V144z"/>
	<path style="fill:#1E81CE;" d="M192,272h32v16h-32V272z"/>
	<path style="fill:#1E81CE;" d="M176,272h-11.472l-9.128-15.2c26.929-15.058,36.553-49.094,21.495-76.023
		c-1.715-3.067-3.716-5.965-5.975-8.657L180,160h12v-16h-16c-2.518,0-4.889,1.186-6.4,3.2l-10.632,14.184
		c-25.736-17.153-60.503-10.195-77.656,15.54s-10.195,60.503,15.54,77.656c12.755,8.501,28.436,11.402,43.388,8.027l12.904,21.512
		c1.446,2.407,4.048,3.879,6.856,3.88h16L176,272z M158.4,188.8l2.552-3.4c3.044,4.397,5.169,9.362,6.248,14.6H136v-31.2
		c4.731,0.995,9.24,2.847,13.304,5.464L145.6,179.2L158.4,188.8z M128,248c-22.091,0.022-40.018-17.868-40.04-39.96
		c-0.019-19.038,13.383-35.452,32.04-39.24V208c0,4.418,3.582,8,8,8h39.2c-2.423,11.492-9.774,21.339-20.104,26.928l-4.232-7.048
		l-13.712,8.24l2.128,3.552C130.176,247.76,129.12,248,128,248z"/>
	<path style="fill:#1E81CE;" d="M224,184h16v16h-16V184z"/>
	<path style="fill:#1E81CE;" d="M256,184h48v16h-48V184z"/>
	<path style="fill:#1E81CE;" d="M224,216h64v16h-64V216z"/>
	<path style="fill:#1E81CE;" d="M304,280h-16v16h24c4.418,0,8-3.582,8-8v-24h-16V280z"/>
</g>
<g>
</g>
<g>
</g>
<g>
</g>
<g>
</g>
<g>
</g>
<g>
</g>
<g>
</g>
<g>
</g>
<g>
</g>
<g>
</g>
<g>
</g>
<g>
</g>
<g>
</g>
<g>
</g>
<g>
</g>
</svg>
