<?xml version="1.0" encoding="utf-8"?>
<!-- Generator: Adobe Illustrator 16.0.0, SVG Export Plug-In . SVG Version: 6.00 Build 0)  -->
<!DOCTYPE svg PUBLIC "-//W3C//DTD SVG 1.1//EN" "http://www.w3.org/Graphics/SVG/1.1/DTD/svg11.dtd">
<svg version="1.1" id="Layer_1" xmlns="http://www.w3.org/2000/svg" xmlns:xlink="http://www.w3.org/1999/xlink" x="0px" y="0px"
	 width="141.73px" height="141.73px" viewBox="0 0 141.73 141.73" enable-background="new 0 0 141.73 141.73" xml:space="preserve">
<g>
	<path fill="#5399D3" d="M113.056,93h-85c-1.104,0-2-0.896-2-2V39c0-1.104,0.896-2,2-2h85c1.104,0,2,0.896,2,2v52
		C115.056,92.104,114.16,93,113.056,93z M30.056,89h81V41h-81V89z"/>
</g>
<g>
	<rect x="63.889" y="91.666" fill="#5399D3" width="13.334" height="9.834"/>
</g>
<g>
	<path fill="#5399D3" d="M97.556,105.082h-54c-0.414,0-0.75-0.336-0.75-0.75s0.336-0.75,0.75-0.75h54c0.414,0,0.75,0.336,0.75,0.75
		S97.97,105.082,97.556,105.082z"/>
</g>
<g>
	<path fill="#5399D3" d="M113.5,50H30c-0.276,0-0.5-0.224-0.5-0.5S29.724,49,30,49h83.5c0.276,0,0.5,0.224,0.5,0.5
		S113.776,50,113.5,50z"/>
</g>
<g>
	<circle fill="#5399D3" cx="106.358" cy="44.969" r="1.455"/>
</g>
<g>
	<circle fill="#5399D3" cx="102.188" cy="44.969" r="1.455"/>
</g>
<g>
	<circle fill="#5399D3" cx="98.017" cy="44.969" r="1.455"/>
</g>
<g>
	<path fill="#5399D3" d="M79.605,56.763H40.778c-0.253,0-0.458-0.23-0.458-0.513s0.205-0.513,0.458-0.513h38.827
		c0.253,0,0.457,0.23,0.457,0.513S79.858,56.763,79.605,56.763z"/>
</g>
<g>
	<path fill="#5399D3" d="M76.948,61.451H40.747c-0.236,0-0.427-0.23-0.427-0.513s0.191-0.513,0.427-0.513h36.201
		c0.235,0,0.427,0.23,0.427,0.513S77.184,61.451,76.948,61.451z"/>
</g>
<g>
	<path fill="#5399D3" d="M76.454,66.138H40.741c-0.232,0-0.421-0.23-0.421-0.513s0.188-0.513,0.421-0.513h35.713
		c0.232,0,0.421,0.23,0.421,0.513S76.687,66.138,76.454,66.138z"/>
</g>
<g>
	<path fill="#5399D3" d="M77.784,70.826H40.757c-0.241,0-0.437-0.23-0.437-0.513s0.195-0.513,0.437-0.513h37.027
		c0.241,0,0.437,0.23,0.437,0.513S78.025,70.826,77.784,70.826z"/>
</g>
<g>
	<path fill="#5399D3" d="M81.891,75.514H40.805c-0.268,0-0.484-0.23-0.484-0.514s0.217-0.514,0.484-0.514h41.086
		c0.268,0,0.484,0.23,0.484,0.514S82.158,75.514,81.891,75.514z"/>
</g>
<g>
	<path fill="#5399D3" d="M88.607,77.42c-7.02,0-12.73-5.71-12.73-12.73c0-7.02,5.711-12.731,12.73-12.731
		c7.021,0,12.731,5.711,12.731,12.731C101.339,71.709,95.628,77.42,88.607,77.42z M88.607,52.959c-6.468,0-11.73,5.263-11.73,11.731
		s5.263,11.73,11.73,11.73c6.469,0,11.731-5.262,11.731-11.73S95.076,52.959,88.607,52.959z"/>
</g>
<g>
	<path fill="#5399D3" d="M104.49,86c-0.147,0-0.293-0.064-0.392-0.189l-6.938-8.762c-0.172-0.217-0.136-0.531,0.081-0.703
		c0.216-0.172,0.53-0.136,0.702,0.082l6.938,8.762c0.172,0.217,0.136,0.531-0.081,0.703C104.709,85.965,104.6,86,104.49,86z"/>
</g>
<g>
	<g>
		<path fill="#5399D3" d="M80.167,73.917c-0.078,0-0.157-0.019-0.231-0.057c-0.245-0.128-0.34-0.43-0.212-0.675l4-7.667
			c0.119-0.226,0.386-0.326,0.624-0.235l5.25,2.031l3.45-8.463c0.104-0.256,0.397-0.379,0.651-0.274
			c0.256,0.104,0.379,0.396,0.274,0.652l-3.636,8.917c-0.104,0.253-0.389,0.375-0.644,0.277l-5.291-2.047l-3.793,7.271
			C80.521,73.819,80.347,73.917,80.167,73.917z"/>
	</g>
	<g>
		<g>
			<path fill="#5399D3" d="M94.834,64.821c-0.192,0.035-0.377-0.093-0.412-0.286l-0.973-5.344l-4.431,3.141
				c-0.16,0.113-0.383,0.076-0.495-0.084c-0.113-0.16-0.074-0.382,0.084-0.495l4.886-3.463c0.1-0.07,0.228-0.085,0.34-0.039
				s0.193,0.146,0.216,0.265l1.071,5.893c0.013,0.068,0.004,0.137-0.021,0.197C95.056,64.714,94.958,64.798,94.834,64.821z"/>
		</g>
	</g>
</g>
</svg>
